<svg width="130" height="124" viewBox="0 0 130 124" fill="none" xmlns="http://www.w3.org/2000/svg">
<g clip-path="url(#clip0_518_14192)">
<path d="M129.774 117.871C129.756 115.064 129.625 112.073 129.018 109.309C128.756 108.144 128.592 106.748 128.366 105.572C128.253 104.968 128.192 104.371 128.104 103.773C128.028 103.176 127.933 102.581 127.772 101.978C127.464 100.813 126.946 99.7648 126.635 98.5729C126.559 98.259 126.464 97.9511 126.379 97.6402C126.287 97.3171 126.229 97.0793 126.068 96.5703C125.921 96.1191 125.775 95.665 125.629 95.2108C125.553 94.9822 125.479 94.7535 125.406 94.5219L125.351 94.3481L125.342 94.3268C125.339 94.3207 125.345 94.3085 125.318 94.3146L125.211 94.3176L124.998 94.3237L124.135 94.3481C123.062 94.3756 121.992 94.403 120.935 94.4304C120.395 94.4426 119.862 94.4548 119.328 94.467C119.194 94.4701 119.057 94.4701 118.911 94.4731L118.703 94.4762H118.572L118.042 94.4792C116.698 94.4823 114.966 94.528 113.735 94.5066C112.476 94.4792 111.33 94.467 109.961 94.4762C107.913 94.4853 106.898 94.5005 109.162 94.5706C107.681 94.6286 106.123 94.6377 104.55 94.6347C102.978 94.6347 101.383 94.6255 99.8288 94.6469C97.9389 94.6682 96.0368 94.6773 94.1469 94.6773C92.257 94.6773 90.3763 94.6682 88.5199 94.6408C86.941 94.6194 86.0417 94.5432 84.2494 94.5493C82.3504 94.5585 80.5245 94.5737 78.6255 94.5585C76.5344 94.5432 74.4707 94.5188 72.4041 94.4975C70.3374 94.4762 68.2646 94.4518 66.1552 94.4487C62.6803 94.4426 59.5132 94.339 56.0504 94.3237C54.5416 94.3176 52.9748 94.3085 51.6762 94.2353C50.5575 94.1683 47.8751 94.211 46.4821 94.1835C44.772 94.15 43.187 94.0707 41.4861 94.0403C39.52 94.0067 37.5691 93.9702 35.6152 93.9366C33.2925 93.8939 30.9789 93.836 28.6592 93.7873C27.5009 93.7629 26.3426 93.7354 25.1812 93.711C24.0229 93.6836 22.8646 93.6562 21.7032 93.6257C20.743 93.5983 18.9568 93.5495 16.8291 93.4885C14.7167 93.4184 12.2446 93.3483 9.93102 93.2874C8.78185 93.2508 7.66315 93.2203 6.63591 93.202C6.12076 93.1929 5.63 93.1837 5.16667 93.1807C4.73078 93.1685 4.32232 93.1624 3.94739 93.1563C2.44462 93.141 1.47529 93.1929 1.49358 93.3422C1.50577 93.4702 2.2282 93.6318 2.62751 93.772C3.04512 93.9214 2.57874 94.0585 3.0695 94.1988C3.29202 94.2628 3.85594 94.3329 4.49911 94.403C4.81613 94.4396 5.16667 94.467 5.50197 94.4944C5.83728 94.5219 6.16039 94.5493 6.43168 94.5737C8.23317 94.7322 10.0987 94.9029 12.1806 95.0218C13.5614 95.1041 14.863 95.1772 15.5123 95.3083C15.6251 95.3297 15.7622 95.351 15.9116 95.3723C9.09581 95.2504 3.80412 95.1041 0.893081 94.9273L1.56978 95.0827C1.63989 95.3479 1.70695 95.6131 1.78011 95.8814C1.63075 95.6497 1.48139 95.4241 1.38079 95.1498C1.57893 95.793 1.71 96.5154 2.08188 97.0427C2.72201 99.5971 3.24325 102.155 3.64866 104.712C3.59075 104.965 3.55417 105.261 3.59684 105.684C3.66695 106.352 3.45053 106.279 3.4048 106.754C3.33774 107.321 3.55417 108.403 3.61208 109.019C3.78888 110.513 4.17295 112.208 4.0937 113.662C3.8468 111.842 3.54502 110.025 3.18533 108.211C3.0756 107.647 2.92014 106.285 2.61532 106.23C2.35012 106.181 2.32879 106.315 2.15504 105.751C2.07883 105.498 1.96605 104.868 1.81059 104.907C2.29831 108.297 2.76468 111.58 2.99939 114.96C3.03597 115.53 3.0756 116.103 3.11218 116.679C3.14266 117.255 3.17314 117.832 3.20667 118.411C3.21582 118.7 3.22496 118.99 3.23715 119.279L3.25544 120.368L3.25239 121.477L3.24935 122.026L3.2463 122.3V122.437V122.471V122.489L3.27068 122.492L3.36518 122.511L4.73078 122.358L5.41053 122.285L6.10247 122.218L7.47721 122.087C7.70583 122.066 7.93749 122.041 8.16001 122.023L8.80013 121.977L10.0804 121.886L10.7205 121.843C10.9339 121.828 11.1594 121.812 11.318 121.803C12.0221 121.767 12.7232 121.73 13.4212 121.694C12.7384 121.745 12.0526 121.794 11.3606 121.846L11.0893 121.864L10.7693 121.892L10.1231 121.947C9.68716 121.983 9.24822 122.02 8.81233 122.059L8.14782 122.117C7.92225 122.136 7.66925 122.166 7.43149 122.194C6.94377 122.245 6.45301 122.297 5.96225 122.352C4.96244 122.456 3.99311 122.581 2.9811 122.7L2.87442 122.669C2.85918 122.648 2.86832 122.617 2.86527 122.59L2.85613 122.422L2.84393 122.087C2.83479 121.861 2.82869 121.633 2.81955 121.404C2.80431 120.938 2.78907 120.468 2.77687 119.999C2.75554 119.6 2.73725 119.197 2.71896 118.795L2.65495 117.761C2.58484 116.384 2.50253 115.009 2.4751 113.665C2.42633 111.699 1.98434 109.885 1.67037 107.964C1.29849 105.785 0.832117 103.609 0.26515 101.441C0.143221 101.457 0.353548 102.557 0.585212 103.743C0.813827 104.928 1.04244 106.203 1.06683 106.562C1.09731 106.986 1.14913 107.413 1.22534 107.84C1.30154 108.266 1.38079 108.69 1.43871 109.114C1.52406 109.696 1.59417 110.284 1.64599 110.872C1.7039 111.461 1.74963 112.052 1.78621 112.637C1.90509 114.174 1.97519 115.713 2.01482 117.252L2.03921 118.408L2.04226 119.66L2.01177 121.438L1.99044 122.322L1.98129 122.764L1.97824 122.983L1.97519 123.093C1.99044 123.12 2.02701 123.138 2.0514 123.16L3.64257 122.986L4.43815 122.901L5.24897 122.818L6.87062 122.654L7.68144 122.572C7.82166 122.556 7.93444 122.55 8.05637 122.541L8.41911 122.514L11.3027 122.297L13.3298 122.178C14.6253 122.099 15.9421 122.041 17.2467 121.974C18.5635 121.919 19.8743 121.858 21.1911 121.806C23.8278 121.706 26.4706 121.617 29.1134 121.538C34.4051 121.383 39.7151 121.264 45.0494 121.163C49.3261 121.084 53.5905 120.993 57.8854 120.935C59.879 120.91 61.589 120.932 63.5886 120.892C65.9632 120.843 68.9047 120.782 71.264 120.794C75.9034 120.825 81.1158 120.727 85.8009 120.697C90.8914 120.666 96.0002 120.648 101.094 120.669C105.471 120.688 109.848 120.718 114.216 120.776C116.399 120.804 118.578 120.843 120.749 120.889L122.468 120.932C123.27 120.95 124.068 120.977 124.879 121.014L127.305 121.118L129.713 121.233C129.729 121.221 129.756 121.215 129.759 121.197V121.142L129.762 121.035L129.765 120.816L129.771 120.38L129.784 119.508L129.796 118.639L129.774 117.871ZM59.882 95.6223C60.7508 95.6345 61.6378 95.6467 62.5065 95.6345C64.6006 95.6101 64.1373 95.5674 63.488 95.4394C67.0118 95.3784 70.9501 95.4851 74.5652 95.4973C76.4795 95.5034 78.3938 95.5125 80.3142 95.5186C81.8291 95.5247 82.9752 95.4089 84.7493 95.415C88.587 95.4241 90.989 95.2992 94.0311 95.1071C95.5339 95.0126 97.5518 94.9943 99.6124 95.0004C101.67 95.0004 103.773 95.0248 105.456 95.0279C104.343 95.1894 101.563 95.1559 99.6916 95.1711C94.9303 95.1925 98.6918 95.2717 100.966 95.3205C99.1186 95.3693 97.4237 95.4028 95.9484 95.5095C99.0667 95.5034 102.057 95.4821 105.127 95.5034C106.483 95.5217 111.354 95.4851 112.723 95.5034C113.119 95.5095 113.835 95.5217 114.576 95.5369C111.186 95.5918 107.157 95.6375 102.67 95.6741C101.329 95.6741 99.8014 95.6893 98.8168 95.7015C95.4912 95.7229 91.9614 95.7412 88.2913 95.7534C88.5504 95.7351 88.6114 95.7076 88.3401 95.6771C87.8249 95.6192 86.4685 95.6985 85.0602 95.7137C85.3345 95.7351 85.6455 95.7503 85.9625 95.7625C76.2631 95.7899 65.7071 95.7808 55.3859 95.7442C55.1512 95.6893 54.9256 95.6375 54.6909 95.5827C56.4101 95.5461 58.1842 95.5948 59.882 95.6223ZM35.7554 95.5644C37.3253 95.4699 39.5596 95.5491 41.5867 95.5796L48.5152 95.671C50.1918 95.6924 51.8652 95.7137 53.5417 95.732C47.1435 95.7046 40.8673 95.665 34.9721 95.6131C35.2098 95.5979 35.4659 95.5827 35.7554 95.5644Z" fill="white"/>
<path d="M129.774 117.871C129.756 115.064 129.625 112.073 129.018 109.309C128.756 108.144 128.592 106.748 128.366 105.572C128.253 104.968 128.192 104.371 128.104 103.773C128.028 103.176 127.933 102.581 127.772 101.978C127.464 100.813 126.946 99.7648 126.635 98.5729C126.559 98.259 126.464 97.9511 126.379 97.6402C126.287 97.3171 126.229 97.0793 126.068 96.5703C125.921 96.1191 125.775 95.665 125.629 95.2108C125.553 94.9822 125.479 94.7535 125.406 94.5219L125.351 94.3481L125.342 94.3268C125.339 94.3207 125.345 94.3085 125.318 94.3146L125.211 94.3176L124.998 94.3237L124.135 94.3481C123.062 94.3756 121.992 94.403 120.935 94.4304C120.395 94.4426 119.862 94.4548 119.328 94.467C119.194 94.4701 119.057 94.4701 118.911 94.4731L118.703 94.4762H118.572L118.042 94.4792C116.698 94.4823 114.966 94.528 113.735 94.5066C112.476 94.4792 111.33 94.467 109.961 94.4762C107.913 94.4853 106.898 94.5005 109.162 94.5706C107.681 94.6286 106.123 94.6377 104.55 94.6347C102.978 94.6347 101.383 94.6255 99.8288 94.6469C97.9389 94.6682 96.0368 94.6773 94.1469 94.6773C92.257 94.6773 90.3763 94.6682 88.5199 94.6408C86.941 94.6194 86.0417 94.5432 84.2494 94.5493C82.3504 94.5585 80.5245 94.5737 78.6255 94.5585C76.5344 94.5432 74.4707 94.5188 72.4041 94.4975C70.3374 94.4762 68.2646 94.4518 66.1552 94.4487C62.6803 94.4426 59.5132 94.339 56.0504 94.3237C54.5416 94.3176 52.9748 94.3085 51.6762 94.2353C50.5575 94.1683 47.8751 94.211 46.4821 94.1835C44.772 94.15 43.187 94.0707 41.4861 94.0403C39.52 94.0067 37.5691 93.9702 35.6152 93.9366C33.2925 93.8939 30.9789 93.836 28.6592 93.7873C27.5009 93.7629 26.3426 93.7354 25.1812 93.711C24.0229 93.6836 22.8646 93.6562 21.7032 93.6257C20.743 93.5983 18.9568 93.5495 16.8291 93.4885C14.7167 93.4184 12.2446 93.3483 9.93102 93.2874C8.78185 93.2508 7.66315 93.2203 6.63591 93.202C6.12076 93.1929 5.63 93.1837 5.16667 93.1807C4.73078 93.1685 4.32232 93.1624 3.94739 93.1563C2.44462 93.141 1.47529 93.1929 1.49358 93.3422C1.50577 93.4702 2.2282 93.6318 2.62751 93.772C3.04512 93.9214 2.57874 94.0585 3.0695 94.1988C3.29202 94.2628 3.85594 94.3329 4.49911 94.403C4.81613 94.4396 5.16667 94.467 5.50197 94.4944C5.83728 94.5219 6.16039 94.5493 6.43168 94.5737C8.23317 94.7322 10.0987 94.9029 12.1806 95.0218C13.5614 95.1041 14.863 95.1772 15.5123 95.3083C15.6251 95.3297 15.7622 95.351 15.9116 95.3723C9.09581 95.2504 3.80412 95.1041 0.893081 94.9273L1.56978 95.0827C1.63989 95.3479 1.70695 95.6131 1.78011 95.8814C1.63075 95.6497 1.48139 95.4241 1.38079 95.1498C1.57893 95.793 1.71 96.5154 2.08188 97.0427C2.72201 99.5971 3.24325 102.155 3.64866 104.712C3.59075 104.965 3.55417 105.261 3.59684 105.684C3.66695 106.352 3.45053 106.279 3.4048 106.754C3.33774 107.321 3.55417 108.403 3.61208 109.019C3.78888 110.513 4.17295 112.208 4.0937 113.662C3.8468 111.842 3.54502 110.025 3.18533 108.211C3.0756 107.647 2.92014 106.285 2.61532 106.23C2.35012 106.181 2.32879 106.315 2.15504 105.751C2.07883 105.498 1.96605 104.868 1.81059 104.907C2.29831 108.297 2.76468 111.58 2.99939 114.96C3.03597 115.53 3.0756 116.103 3.11218 116.679C3.14266 117.255 3.17314 117.832 3.20667 118.411C3.21582 118.7 3.22496 118.99 3.23715 119.279L3.25544 120.368L3.25239 121.477L3.24935 122.026L3.2463 122.3V122.437V122.471V122.489L3.27068 122.492L3.36518 122.511L4.73078 122.358L5.41053 122.285L6.10247 122.218L7.47721 122.087C7.70583 122.066 7.93749 122.041 8.16001 122.023L8.80013 121.977L10.0804 121.886L10.7205 121.843C10.9339 121.828 11.1594 121.812 11.318 121.803C12.0221 121.767 12.7232 121.73 13.4212 121.694C12.7384 121.745 12.0526 121.794 11.3606 121.846L11.0893 121.864L10.7693 121.892L10.1231 121.947C9.68716 121.983 9.24822 122.02 8.81233 122.059L8.14782 122.117C7.92225 122.136 7.66925 122.166 7.43149 122.194C6.94377 122.245 6.45301 122.297 5.96225 122.352C4.96244 122.456 3.99311 122.581 2.9811 122.7L2.87442 122.669C2.85918 122.648 2.86832 122.617 2.86527 122.59L2.85613 122.422L2.84393 122.087C2.83479 121.861 2.82869 121.633 2.81955 121.404C2.80431 120.938 2.78907 120.468 2.77687 119.999C2.75554 119.6 2.73725 119.197 2.71896 118.795L2.65495 117.761C2.58484 116.384 2.50253 115.009 2.4751 113.665C2.42633 111.699 1.98434 109.885 1.67037 107.964C1.29849 105.785 0.832117 103.609 0.26515 101.441C0.143221 101.457 0.353548 102.557 0.585212 103.743C0.813827 104.928 1.04244 106.203 1.06683 106.562C1.09731 106.986 1.14913 107.413 1.22534 107.84C1.30154 108.266 1.38079 108.69 1.43871 109.114C1.52406 109.696 1.59417 110.284 1.64599 110.872C1.7039 111.461 1.74963 112.052 1.78621 112.637C1.90509 114.174 1.97519 115.713 2.01482 117.252L2.03921 118.408L2.04226 119.66L2.01177 121.438L1.99044 122.322L1.98129 122.764L1.97824 122.983L1.97519 123.093C1.99044 123.12 2.02701 123.138 2.0514 123.16L3.64257 122.986L4.43815 122.901L5.24897 122.818L6.87062 122.654L7.68144 122.572C7.82166 122.556 7.93444 122.55 8.05637 122.541L8.41911 122.514L11.3027 122.297L13.3298 122.178C14.6253 122.099 15.9421 122.041 17.2467 121.974C18.5635 121.919 19.8743 121.858 21.1911 121.806C23.8278 121.706 26.4706 121.617 29.1134 121.538C34.4051 121.383 39.7151 121.264 45.0494 121.163C49.3261 121.084 53.5905 120.993 57.8854 120.935C59.879 120.91 61.589 120.932 63.5886 120.892C65.9632 120.843 68.9047 120.782 71.264 120.794C75.9034 120.825 81.1158 120.727 85.8009 120.697C90.8914 120.666 96.0002 120.648 101.094 120.669C105.471 120.688 109.848 120.718 114.216 120.776C116.399 120.804 118.578 120.843 120.749 120.889L122.468 120.932C123.27 120.95 124.068 120.977 124.879 121.014L127.305 121.118L129.713 121.233C129.729 121.221 129.756 121.215 129.759 121.197V121.142L129.762 121.035L129.765 120.816L129.771 120.38L129.784 119.508L129.796 118.639L129.774 117.871ZM59.882 95.6223C60.7508 95.6345 61.6378 95.6467 62.5065 95.6345C64.6006 95.6101 64.1373 95.5674 63.488 95.4394C67.0118 95.3784 70.9501 95.4851 74.5652 95.4973C76.4795 95.5034 78.3938 95.5125 80.3142 95.5186C81.8291 95.5247 82.9752 95.4089 84.7493 95.415C88.587 95.4241 90.989 95.2992 94.0311 95.1071C95.5339 95.0126 97.5518 94.9943 99.6124 95.0004C101.67 95.0004 103.773 95.0248 105.456 95.0279C104.343 95.1894 101.563 95.1559 99.6916 95.1711C94.9303 95.1925 98.6918 95.2717 100.966 95.3205C99.1186 95.3693 97.4237 95.4028 95.9484 95.5095C99.0667 95.5034 102.057 95.4821 105.127 95.5034C106.483 95.5217 111.354 95.4851 112.723 95.5034C113.119 95.5095 113.835 95.5217 114.576 95.5369C111.186 95.5918 107.157 95.6375 102.67 95.6741C101.329 95.6741 99.8014 95.6893 98.8168 95.7015C95.4912 95.7229 91.9614 95.7412 88.2913 95.7534C88.5504 95.7351 88.6114 95.7076 88.3401 95.6771C87.8249 95.6192 86.4685 95.6985 85.0602 95.7137C85.3345 95.7351 85.6455 95.7503 85.9625 95.7625C76.2631 95.7899 65.7071 95.7808 55.3859 95.7442C55.1512 95.6893 54.9256 95.6375 54.6909 95.5827C56.4101 95.5461 58.1842 95.5948 59.882 95.6223ZM35.7554 95.5644C37.3253 95.4699 39.5596 95.5491 41.5867 95.5796L48.5152 95.671C50.1918 95.6924 51.8652 95.7137 53.5417 95.732C47.1435 95.7046 40.8673 95.665 34.9721 95.6131C35.2098 95.5979 35.4659 95.5827 35.7554 95.5644Z" fill="white"/>
<path d="M63.3418 85.5845C63.3083 85.7004 63.2199 85.7735 63.1315 85.8467C63.2961 85.8284 63.3845 85.9137 63.293 86.1302C63.5308 86.0692 63.7289 85.9595 63.4302 85.5541C63.3936 85.5693 63.3662 85.5815 63.3418 85.5845ZM31.5612 116.045C31.7105 115.939 31.8751 115.814 32.0489 115.679C31.869 115.786 31.6892 115.893 31.5215 115.99C31.5368 116.009 31.5398 116.021 31.5612 116.045ZM26.2207 113.506C26.492 113.558 26.6353 113.357 26.8608 113.32C26.4889 112.991 26.0713 113.201 26.2207 113.506ZM31.3905 115.99C31.3691 115.954 31.3325 115.905 31.2807 115.847C31.0369 115.829 30.9607 116.054 31.0552 116.365C31.0613 116.097 31.4423 116.213 31.4088 116.051C31.3417 116.091 31.2746 116.131 31.2137 116.164L31.3905 115.99ZM108.385 40.8612C108.498 40.7149 108.781 40.6509 108.659 40.3918C108.282 39.9772 108.303 40.6661 108.385 40.8612ZM109.367 40.1967C109.382 39.7517 110.223 40.2699 109.696 39.456C109.604 39.709 108.967 39.6999 109.367 40.1967ZM118.106 30.5004C118.316 30.8814 112.202 35.9871 112.854 36.4261C112.555 36.0938 118.749 30.8021 118.106 30.5004ZM33.4084 111.089C33.4297 111.101 33.4541 111.113 33.4754 111.132C33.4693 111.083 33.445 111.074 33.4084 111.089ZM21.5082 111.433C21.4289 111.692 21.4685 112.101 21.1485 112.064C21.6027 112.519 21.8374 111.9 21.752 111.68C21.6819 111.705 21.5935 111.567 21.5082 111.433ZM21.4563 110.226C21.435 110.671 20.3011 110.659 20.8985 111.564C20.993 111.016 21.6149 110.964 21.9075 110.528C21.9227 110.516 21.9349 110.494 21.9441 110.47C21.9319 110.491 21.9197 110.51 21.9075 110.528C21.8069 110.619 21.5783 110.479 21.4563 110.226ZM17.7284 106.334C17.8778 105.751 18.8867 105.895 18.6825 105.392C18.3228 105.684 17.5882 105.739 17.7284 106.334ZM13.909 103.011C13.973 102.801 14.4607 102.798 14.2534 102.45C14.1894 102.661 13.7017 102.661 13.909 103.011ZM16.5701 106.989C16.6707 106.425 17.8564 106.928 17.4419 106.129C17.2925 106.62 16.4603 106.392 16.5701 106.989ZM12.3574 98.323C12.6318 98.0609 13.5706 97.9206 13.4365 97.3415C13.1317 97.5853 12.4062 97.6951 12.3574 98.323ZM10.8059 99.4935C11.1077 98.832 12.4428 99.143 12.0709 98.1218C11.7265 98.576 10.7328 99.0271 10.8059 99.4935ZM15.6099 103.554C15.8507 103.49 16.439 103.481 16.3232 103.112C15.8751 102.968 15.7562 103.444 15.6099 103.554ZM21.1241 107.833C20.929 107.94 20.2645 107.748 20.4718 108.251C20.5297 107.995 21.1668 108.166 21.1241 107.833ZM10.0835 95.0614C9.294 95.3998 10.3548 95.7015 10.0835 95.0614V95.0614ZM114.39 18.3776C114.149 18.4417 113.561 18.4508 113.677 18.8196C114.125 18.9629 114.247 18.4904 114.39 18.3776ZM11.6076 94.8541C11.5588 94.9578 11.3729 95.2931 11.5893 95.3297C11.7417 95.1772 11.5497 95.0248 11.9277 95.2565C11.8575 95.1803 11.7905 95.1071 11.8484 95.0949L11.6076 94.8541ZM113.174 19.3043C112.912 18.9934 113.619 19.0909 113.473 18.78C113.284 18.7251 112.619 19.0178 113.174 19.3043ZM16.8261 102.627C17.0883 102.938 16.3841 102.84 16.5274 103.151C16.7164 103.209 17.3809 102.914 16.8261 102.627ZM18.2832 104.334C18.2588 104.505 17.829 104.477 18.0728 104.782C18.1521 104.755 18.6307 104.938 18.402 104.7C18.0149 104.675 18.6703 104.358 18.2832 104.334ZM108.687 19.1702C109.047 18.8745 109.781 18.8227 109.641 18.2283C109.492 18.8105 108.483 18.6672 108.687 19.1702ZM26.3396 109.589C25.9372 109.193 25.4068 109.178 25.6172 109.607C25.8061 109.492 26.0317 109.455 26.3396 109.589ZM116.091 18.9233C116.024 19.1366 115.539 19.1366 115.747 19.4841C115.811 19.2738 116.298 19.2738 116.091 18.9233ZM119.917 26.873C120.706 26.5346 119.645 26.2329 119.917 26.873V26.873ZM118.392 27.0772C118.441 26.9736 118.627 26.6383 118.411 26.6017C118.258 26.7541 118.45 26.9065 118.072 26.6749C118.142 26.7511 118.21 26.8242 118.152 26.8364L118.392 27.0772ZM110.802 17.576C110.702 18.1368 109.513 17.6369 109.931 18.4356C110.077 17.9417 110.912 18.1704 110.802 17.576ZM116.493 21.3893C116.503 21.4502 116.499 21.5142 116.493 21.5874C116.533 21.5661 116.542 21.5112 116.493 21.3893ZM33.1584 111.061C32.6951 111.189 32.1251 112.07 32.0245 112.095C32.0184 112.089 32.0123 112.086 32.0062 112.077C32.0062 112.095 32.0123 112.098 32.0245 112.095C32.3019 112.458 33.1615 111.189 33.4084 111.089C33.3627 111.061 33.3139 111.046 33.2621 111.046C33.1706 111.098 33.1279 111.116 33.1584 111.061ZM13.5036 100.545C13.4944 100.487 13.4975 100.42 13.5036 100.347C13.467 100.368 13.4548 100.423 13.5036 100.545ZM13.6377 30.3601C12.3483 28.9854 10.7998 26.7297 10.1871 26.8212C10.303 26.9126 12.1227 28.7537 13.6377 30.3601ZM120.078 94.3786C119.971 94.2293 119.846 94.0647 119.712 93.8909C119.819 94.0738 119.926 94.2506 120.023 94.4182C120.042 94.403 120.057 94.4 120.078 94.3786ZM117.539 99.7191C117.594 99.4478 117.39 99.3045 117.353 99.079C117.027 99.4508 117.234 99.8684 117.539 99.7191ZM120.084 94.528C120.124 94.595 120.163 94.6621 120.197 94.7231L120.023 94.5463C119.987 94.5676 119.938 94.6042 119.88 94.656C119.862 94.8999 120.087 94.9761 120.398 94.8816C120.13 94.8785 120.246 94.4944 120.084 94.528ZM67.0728 85.4779C66.8137 85.3285 66.6491 85.3041 66.6064 85.3651C66.8045 85.5632 67.0027 85.7583 67.2008 85.9564C67.0697 85.7918 67.0088 85.6333 67.0728 85.4779ZM10.1201 27.2174C10.1384 26.9766 9.91278 26.8974 9.60187 26.9919C9.94327 27.001 9.65369 27.632 10.1201 27.2174ZM115.713 104.185C115.737 104.258 115.603 104.346 115.466 104.432C115.722 104.511 116.134 104.471 116.097 104.791C116.548 104.334 115.933 104.099 115.713 104.185ZM114.561 104.029C114.652 104.13 114.515 104.358 114.262 104.48C114.707 104.502 114.695 105.636 115.6 105.038C115.049 104.944 114.997 104.325 114.561 104.029C114.546 104.014 114.527 104.002 114.503 103.993C114.521 104.005 114.539 104.017 114.561 104.029ZM110.366 108.211C109.784 108.062 109.928 107.053 109.425 107.257C109.72 107.617 109.772 108.352 110.366 108.211ZM106.483 111.683C106.693 111.75 106.693 112.238 107.044 112.028C106.831 111.964 106.831 111.476 106.483 111.683ZM110.162 108.498C110.653 108.647 110.424 109.479 111.022 109.37C110.458 109.269 110.958 108.08 110.162 108.498ZM101.377 112.5C101.618 112.805 101.731 113.531 102.359 113.579C102.097 113.308 101.953 112.369 101.377 112.5ZM102.155 113.869C102.609 114.216 103.063 115.207 103.526 115.134C102.862 114.832 103.176 113.497 102.155 113.869ZM107.148 109.617C107.004 110.062 107.477 110.184 107.59 110.33C107.523 110.092 107.513 109.501 107.148 109.617ZM111.866 104.816C111.973 105.011 111.781 105.675 112.284 105.468C112.031 105.41 112.198 104.77 111.866 104.816ZM99.0942 115.856C99.4326 116.646 99.7343 115.585 99.0942 115.856V115.856ZM12.4611 22.1574C12.4062 22.4287 12.6104 22.572 12.647 22.7975C12.9732 22.4257 12.7659 22.0111 12.4611 22.1574ZM18.1338 17.0639C18.0271 16.8688 18.2192 16.2043 17.7132 16.4115C17.9722 16.4664 17.8015 17.1065 18.1338 17.0639ZM22.8555 12.2599C22.9987 11.8149 22.5263 11.6929 22.4135 11.5466C22.4775 11.7874 22.4866 12.3757 22.8555 12.2599ZM99.1308 114.088C99.0515 114.168 98.9692 114.25 98.89 114.329C98.9906 114.381 99.3289 114.564 99.3655 114.35C99.2131 114.198 99.0607 114.39 99.2924 114.012C99.2131 114.082 99.143 114.146 99.1308 114.088ZM92.1687 111.421C92.5009 111.122 92.5314 112.058 92.8362 111.412C92.4552 111.622 92.6107 110.769 92.1687 111.421ZM88.4011 107.937C88.8461 107.952 88.3279 108.794 89.1418 108.266C88.8888 108.172 88.8949 107.538 88.4011 107.937ZM87.7335 106.952C87.8799 107.065 87.9439 107.349 88.203 107.224C88.6175 106.852 87.9286 106.87 87.7335 106.952ZM16.1189 30.1742C15.8903 30.1742 15.9604 29.5615 15.488 30.0645C15.8598 30.0279 15.619 30.4729 16.1189 30.1742ZM106.663 109.114C106.974 108.852 106.876 109.559 107.19 109.412C107.242 109.223 106.949 108.556 106.663 109.114ZM108.733 107.538C108.708 107.925 108.391 107.269 108.367 107.657C108.538 107.681 108.51 108.111 108.815 107.867C108.788 107.788 108.97 107.309 108.733 107.538ZM113.643 100.32C113.527 100.134 113.491 99.9081 113.625 99.5972C113.226 99.9995 113.21 100.53 113.643 100.32ZM104.416 106.102C104.346 106.197 104.313 106.294 104.215 106.276C104.215 106.129 103.837 106.172 104.099 105.898C104.157 105.925 104.182 106.011 104.285 105.947C104.328 105.989 104.371 106.044 104.416 106.102ZM113.433 17.6369C111.711 19.3409 109.193 21.9715 108.824 21.7002C109.172 21.2734 111.476 19.35 113.433 17.6369ZM105.133 32.9481L105.791 32.4604L104.895 33.6918L105.133 32.9481ZM103.121 34.1978C104.496 33.198 103.38 34.7801 104.429 34.2039C104.508 34.1521 104.59 34.1033 104.648 34.0698C104.566 34.1247 104.493 34.1674 104.429 34.2039C104.301 34.2862 104.179 34.3807 104.148 34.4752L104.511 34.8776C104.148 34.838 102.819 37.4046 101.7 37.7856C102.307 37.4472 103.246 35.7067 104.258 34.8959L104.148 34.4752C103.947 34.7099 103.746 34.9416 103.697 35.091L103.938 34.3472C102.88 34.9416 101.886 36.4657 101.127 36.8925C101.222 36.5968 101.17 36.3834 101.112 36.1761L103.221 34.2649L103.121 34.1978ZM103.795 3.67613C103.401 3.91085 97.7622 9.42201 97.3811 9.67806C97.6768 9.28789 102.981 3.35912 103.795 3.67613ZM97.2409 40.276C97.3232 40.1906 97.3842 40.1479 97.4329 40.1327C98.5029 39.3097 99.5545 38.3922 100.271 37.6118L98.4236 39.8614C97.6433 40.6418 97.6768 40.0595 97.4329 40.1357C97.3689 40.1815 97.3049 40.2272 97.2409 40.276C97.1556 40.3674 97.0489 40.5015 96.9056 40.7088C96.8538 40.8582 96.9605 40.9161 97.1129 40.8338C97.1708 41.4069 96.4575 41.3215 96.0643 42.1476L95.54 41.4709C96.0734 41.1325 96.6557 40.721 97.2409 40.276ZM95.098 42.5774L95.095 42.4493C95.1163 42.4798 95.1133 42.5255 95.098 42.5774L95.1102 43.1687C94.083 43.9613 94.9944 42.995 95.098 42.5774ZM94.3604 43.9582C93.5526 44.5313 93.3636 45.1196 92.946 44.8666C93.3484 44.4002 94.0982 43.6138 94.3604 43.9582ZM90.2331 50.1491L91.3396 49.4115L90.1813 50.3015L90.2331 50.1491ZM30.1194 40.1784L31.3295 41.6873C30.6071 41.6964 30.159 40.6814 30.1194 40.1784ZM31.9788 11.5832C31.552 11.2357 29.6286 8.93124 27.9155 6.97429C29.6195 8.69653 32.2501 11.2144 31.9788 11.5832ZM26.9218 106.477C27.315 106.242 27.693 105.992 28.074 105.733C27.7783 106.126 27.7326 106.794 26.9218 106.477ZM31.6922 68.3103L31.7898 68.0147C31.1283 68.1366 32.2866 66.8868 32.4329 66.4418C32.4878 66.6491 32.8353 66.3351 33.1401 66.1644C33.7071 66.3382 32.3446 67.4629 31.6922 68.3103ZM37.7551 103.548C37.749 103.188 38.3038 102.633 38.2977 102.27L38.9073 102.295C38.505 102.764 38.2642 103.502 37.7551 103.548ZM100.484 70.7459C100.365 70.9379 100.624 71.2092 100.874 71.4561C100.981 71.5414 101.069 71.6359 101.149 71.7426C101.076 71.6542 100.978 71.5597 100.874 71.4561C100.466 71.133 99.8746 70.9105 99.2954 70.3526L99.4661 69.7918C98.9357 69.4961 99.21 70.2033 98.1096 69.1029C97.7256 67.9842 100.277 69.935 98.8991 68.1214C100.554 69.7735 98.4267 69.4534 100.484 70.7459ZM97.5 66.9234C97.7561 67.3776 98.8321 68.2219 98.1767 68.1366L97.3506 66.8746L97.5 66.9234ZM97.0946 67.2861C98.006 68.6944 96.9666 67.4904 97.0489 68.5085C97.0275 68.2494 96.1588 67.3471 95.6284 67.0514C95.5034 66.393 96.9666 67.4904 97.0946 67.2861ZM95.5857 68.2799C95.0553 67.9811 95.3083 68.4353 95.1803 68.6395C94.6926 67.9903 95.5857 68.2799 94.5036 67.4264C94.9456 67.5727 95.3937 67.719 95.5857 68.2799ZM87.761 59.2815L86.5326 58.3854L87.1056 58.3275L87.761 59.2815ZM67.847 76.3576C67.7769 76.254 67.6672 76.2113 67.5514 76.2082C67.3928 76.0223 67.2557 75.7754 66.9966 75.437C67.0271 75.4035 67.0545 75.37 67.085 75.3395C67.3288 75.5072 67.6367 75.7663 67.8714 76.0314C67.8806 76.1442 67.911 76.2723 67.847 76.3576ZM45.0068 56.8948C44.9733 56.8552 44.958 56.8064 45.0403 56.7089C45.0647 56.7241 45.083 56.7393 45.1074 56.7515C45.0769 56.7973 45.0434 56.846 45.0068 56.8948ZM43.3669 53.4473C43.6046 53.2705 43.7967 53.0358 44.0161 52.8681C44.1655 52.8864 44.3362 52.9321 44.5587 53.0419C44.3118 53.2888 44.0619 53.5387 43.8119 53.7887C43.6656 53.6759 43.5162 53.5631 43.3669 53.4473ZM52.2219 31.3417C52.5176 31.4362 53.048 31.7318 53.5967 31.4179L53.3863 32.3415L52.2219 31.3417ZM61.5769 38.953L61.8482 39.4347L61.4184 39.0994C61.4732 39.0506 61.525 39.0018 61.5769 38.953ZM61.2141 73.791L61.1684 73.8154C61.1288 73.7758 61.0922 73.7362 61.0526 73.6965L61.1166 73.6203C61.1562 73.66 61.1958 73.6996 61.2355 73.7422L61.2141 73.791ZM45.9487 54.7946C46.0066 54.8555 46.0676 54.9135 46.1255 54.9714C46.1194 54.9744 46.1164 54.9805 46.1103 54.9836C46.0493 54.9196 45.9944 54.8555 45.9487 54.7946ZM89.0656 41.9433C88.9711 42.239 88.6754 42.7694 88.9925 43.3181L88.0688 43.1078L89.0656 41.9433ZM87.9286 43.9125C87.2397 45.272 85.8741 46.034 84.725 47.2868C85.3742 46.4364 86.9319 45.0769 87.9286 43.9125ZM80.2289 19.8408L78.72 21.0509C78.7108 20.3285 79.7259 19.8804 80.2289 19.8408ZM72.8278 26.5438C71.9438 28.8574 70.0661 29.2994 68.3652 31.8263L68.5176 31.741C66.8564 33.3931 68.0269 33.2255 67.2313 34.521C67.1673 34.5667 67.1094 34.6063 67.0545 34.6398C66.9265 34.5118 66.7954 34.3807 66.6643 34.2527C66.7649 33.9418 66.8167 33.6705 66.3382 33.9266C66.3351 33.9235 66.329 33.9174 66.326 33.9144C68.2738 31.3752 70.2673 28.6989 72.8278 26.5438ZM60.5801 30.226L60.4277 30.1773L59.69 29.0708L60.5801 30.226ZM57.5654 35.6823C56.715 35.0331 55.3555 33.4754 54.1911 32.4787C55.5506 33.1675 56.3126 34.5331 57.5654 35.6823ZM54.2368 26.0469C54.8098 26.8547 55.3982 27.0437 55.1451 27.4613C54.6788 27.0589 53.8954 26.3091 54.2368 26.0469ZM52.859 25.3062L53.4503 25.294C54.2429 26.3243 53.2735 25.4099 52.859 25.3062L52.731 25.3093C52.7615 25.291 52.8072 25.294 52.859 25.3062ZM50.4113 22.9743C50.4601 23.0384 50.5058 23.1024 50.5546 23.1664C50.646 23.2517 50.7801 23.3584 50.9874 23.5017C51.1368 23.5535 51.1947 23.4468 51.1124 23.2944C51.6854 23.2365 51.6001 23.9498 52.4261 24.343L51.7494 24.8673C51.4111 24.3338 50.9965 23.7516 50.5546 23.1664C50.4722 23.0841 50.4265 23.0231 50.4113 22.9743C49.5883 21.9044 48.6708 20.8558 47.8904 20.1365L50.14 21.9867C50.9203 22.764 50.3381 22.7305 50.4113 22.9743ZM44.4825 15.9787C44.4307 15.8994 44.385 15.8171 44.3484 15.7592C44.4033 15.8415 44.4459 15.9147 44.4825 15.9787C44.5648 16.1067 44.6624 16.2287 44.7538 16.2591L45.1562 15.8964C45.1165 16.2591 47.6831 17.5882 48.0672 18.7068C47.7289 18.1003 45.9883 17.1614 45.1775 16.1494L44.7569 16.2591C44.9916 16.4603 45.2263 16.6615 45.3726 16.7133L44.6288 16.4695C45.2232 17.5272 46.7473 18.5209 47.1741 19.2799C46.8784 19.1854 46.665 19.2372 46.4578 19.2952L44.8849 17.5577L44.9032 17.5516C44.7995 17.4723 44.7386 17.3047 44.6166 17.2589L44.5465 17.1827L44.5039 17.2529C44.4917 17.2559 44.4825 17.259 44.4703 17.262C44.2204 16.9176 44.1411 16.7347 44.1472 16.6341C44.1746 16.6158 44.2051 16.5944 44.2387 16.567C44.2173 16.567 44.196 16.564 44.1777 16.5579C44.3118 16.4237 44.8605 16.6645 44.4825 15.9787ZM43.9674 15.5123L43.2267 15.2715L42.7389 14.6162L43.9674 15.5123ZM36.8224 47.5795C39.136 48.4635 39.5779 50.3412 42.1049 52.0421L42.0196 51.8896C42.8914 52.7645 43.2571 52.8529 43.5985 52.859C43.4217 53.0327 43.2785 53.179 43.1718 53.2979C40.9496 51.5909 38.6909 49.7986 36.8224 47.5795ZM41.5806 59.4553L42.2726 58.7664C42.1476 59.1444 41.855 59.2755 41.5806 59.4553L41.163 59.8729C41.2697 59.6778 41.4221 59.5589 41.5806 59.4553ZM40.6814 95.351L40.6235 94.7749L39.6694 95.793C39.6572 95.0706 40.9222 94.2414 41.1752 94.2232C41.0289 94.6712 40.7789 95.0523 40.6814 95.351ZM41.3368 94.8633C41.6843 94.1835 41.8275 93.7385 42.5865 93.3117L41.3368 94.8633ZM43.0621 57.1082C43.4583 56.9923 43.7449 56.7332 43.9918 56.404C44.068 56.5199 44.132 56.6235 44.1807 56.715C43.9095 56.9801 43.6534 57.2453 43.4248 57.5136C43.0194 57.6203 43.2693 57.2393 43.0621 57.1082ZM44.3636 57.1478C44.4917 57.1996 44.641 57.1996 44.827 57.1265C44.513 57.5044 44.0893 57.9007 43.7845 57.9251C43.9247 57.5105 44.0923 57.3398 44.3636 57.1478ZM44.7782 96.8263C45.0312 96.4423 44.769 96.4666 44.6715 96.4026L45.8877 96.0856C45.5829 96.2502 45.1806 96.36 44.7782 96.8263ZM45.5067 94.595L44.4825 94.3207C44.9733 93.1929 45.3909 93.8117 46.2322 92.3699L46.1438 93.0252C46.9912 91.9461 48.0032 91.5042 48.0611 91.7145C47.1588 92.9429 46.2444 93.0892 45.5067 94.595ZM45.7567 91.1749C46.0554 91.0987 46.6528 90.7208 47.0887 90.2544L47.4698 89.7332C47.3783 89.913 47.2442 90.0898 47.0887 90.2544L46.1194 91.5834L45.7567 91.1749ZM49.6614 90.2056C49.4694 90.0867 49.1981 90.3458 48.9512 90.5958C48.8689 90.7025 48.7713 90.7909 48.6677 90.8701C48.7561 90.797 48.8506 90.6994 48.9512 90.5958C49.2743 90.1873 49.4968 89.599 50.0546 89.0168L50.6155 89.1875C50.9112 88.6571 50.204 88.9315 51.3044 87.8311C52.4231 87.447 50.4722 89.9983 52.2859 88.6206C50.6308 90.2727 50.9539 88.145 49.6614 90.2056ZM51.7708 84.9017C52.42 84.414 52.1305 85.3072 52.9809 84.225C52.8346 84.667 52.6883 85.1151 52.1274 85.3071C52.4261 84.7768 51.972 85.0298 51.7708 84.9017ZM53.4839 87.2214C53.0297 87.4744 52.1853 88.5535 52.2707 87.8981L53.5326 87.0721L53.4839 87.2214ZM53.1211 86.816C51.7129 87.7274 52.9169 86.688 51.8988 86.7703C52.1579 86.749 53.0602 85.8802 53.3559 85.3498C54.0143 85.2248 52.9169 86.688 53.1211 86.816ZM60.9611 76.8453C60.4094 77.397 59.5955 77.6104 59.2389 77.5617L58.5409 78.5645C58.7116 78.467 58.8548 78.5798 59.0469 78.531C59.2663 78.3816 59.4584 78.2079 59.6016 77.9701C59.3669 78.3633 59.1932 78.4944 59.0469 78.531C58.4311 78.9547 57.5837 79.1985 56.8887 80.2166L57.1021 80.7013C56.6906 80.4483 55.4256 81.2744 54.7824 82.1187L56.0474 81.6554C55.2945 82.4388 54.0844 83.1216 53.682 83.5849C52.7035 82.7985 56.4345 80.4697 55.5658 80.1039C54.8068 80.5306 53.6058 81.9297 53.1029 82.3321C53.0205 82.5912 52.9382 82.9661 52.9931 83.1338C53.1333 83.0789 53.2644 83.0423 53.3711 83.0332C53.1394 83.2648 53.0297 83.2527 52.9931 83.1338C52.1427 83.466 50.7649 84.5756 49.6462 85.7248L49.7529 85.7857C47.8904 87.3159 46.2474 89.6905 44.6959 91.4097L44.2813 90.7909C45.6317 89.3064 46.473 87.8646 47.6862 87.1879C47.93 86.8069 47.677 86.8252 47.4271 86.8465C48.9085 84.1976 49.7955 85.2797 51.4385 82.9052L51.3318 82.8442C52.8712 80.4056 54.06 81.3201 56.0627 79.3479C56.4589 78.5188 54.8982 79.8783 55.6512 79.0919C56.0108 79.1345 56.7546 77.9884 57.4557 77.3544C58.0196 77.522 57.4831 78.7931 58.1415 78.6682L58.5287 77.4793C59.5498 77.394 59.1231 76.4186 60.1869 76.1869L59.8851 75.8821C59.815 75.8608 59.7571 75.812 59.7236 75.7175L59.8851 75.8821C60.3393 76.0162 61.3787 74.8244 61.2903 75.0865L60.3881 75.9552C60.1412 76.696 61.458 76.0802 60.9611 76.8453ZM61.1257 77.4824L62.0219 76.254L62.0798 76.827L61.1257 77.4824ZM66.3138 76.1595C66.4205 76.0528 66.5241 75.9461 66.6278 75.8364C66.8015 76.0223 66.9722 76.2052 67.1459 76.3759C67.0514 76.4765 67.0088 76.6137 67.0697 76.7661C66.8686 76.5344 66.6064 76.3424 66.3138 76.1595ZM67.3898 77.3452C67.3349 77.1562 67.2435 76.9916 67.1307 76.8453C67.1856 76.7264 67.274 76.6533 67.3776 76.6045C67.5178 76.7386 67.658 76.8636 67.7952 76.9855C67.8989 77.3879 67.5209 77.138 67.3898 77.3452ZM67.8226 76.446C67.9263 76.4033 68.0086 76.3454 68.033 76.2357C68.1275 76.3729 68.1915 76.5039 68.2006 76.6198C68.0452 76.5679 67.9232 76.51 67.8226 76.446ZM69.7339 78.8267L69.045 78.1347C69.423 78.2597 69.554 78.5523 69.7339 78.8267L70.1484 79.2443C69.9564 79.1376 69.8375 78.9852 69.7339 78.8267ZM76.7204 87.9713C76.9276 87.9164 76.6167 87.5689 76.446 87.2641C76.6198 86.7002 77.7415 88.0627 78.5889 88.712L78.2932 88.6145C78.4152 89.2759 77.1685 88.1176 76.7204 87.9713ZM83.5544 58.9889C83.5666 58.9767 83.5788 58.9645 83.5941 58.9493L84.0726 59.1901L84.3257 59.6473L83.5544 58.9889ZM101.069 76.129C99.585 74.7786 98.1432 73.9373 97.4665 72.7241C97.0854 72.4803 97.1037 72.7333 97.1251 72.9832C94.4762 71.5018 95.5583 70.6148 93.1837 68.9718L93.1228 69.0785C90.6842 67.5391 91.5987 66.3503 89.6265 64.3477C88.7974 63.9514 90.1569 65.5121 89.3704 64.7592C89.4101 64.4025 88.267 63.6557 87.6329 62.9546C87.8006 62.3907 89.0717 62.9272 88.9467 62.2688L87.7579 61.8817C87.6726 60.8605 86.6972 61.2873 86.4655 60.2234L86.1607 60.5252C86.1393 60.5953 86.0906 60.6532 85.9961 60.6868L86.1607 60.5252C86.2948 60.071 85.106 59.0316 85.3651 59.12L86.2338 60.0223C86.9745 60.2631 86.3588 58.9462 87.1269 59.4431C87.6787 59.9948 87.8921 60.8117 87.8433 61.1653L88.8461 61.8634C88.7486 61.6927 88.8614 61.5494 88.8126 61.3574C88.6632 61.1379 88.4895 60.9459 88.2517 60.8026C88.645 61.0373 88.776 61.2111 88.8126 61.3574C89.2363 61.9731 89.4802 62.8205 90.4983 63.5155L90.9829 63.3021C90.7299 63.7167 91.556 64.9787 92.4004 65.6218L91.937 64.3568C92.7204 65.1067 93.4032 66.3229 93.8665 66.7222C93.0801 67.7007 90.7513 63.9697 90.3855 64.8384C90.8092 65.5974 92.2114 66.7984 92.6137 67.3014C92.8728 67.3837 93.2477 67.466 93.4154 67.4111C93.3605 67.2679 93.324 67.1429 93.3148 67.0331C93.5465 67.2648 93.5343 67.3745 93.4154 67.4111C93.7446 68.2616 94.8572 69.6394 96.0064 70.7581L96.0673 70.6514C97.5945 72.5138 99.9721 74.1568 101.691 75.7083L101.069 76.129ZM101.454 74.6506C101.377 74.3519 100.999 73.7544 100.533 73.3186L100.012 72.9375C100.192 73.029 100.365 73.1631 100.533 73.3186L101.859 74.2879L101.454 74.6506ZM102.645 74.1751L103.301 74.2635C102.222 73.4161 101.78 72.4041 101.99 72.3462C103.221 73.2454 103.371 74.1599 104.874 74.9006L104.599 75.9248C103.471 75.431 104.087 75.0164 102.645 74.1751ZM103.59 77.8208L105.142 79.0705C104.462 78.723 104.017 78.5798 103.59 77.8208ZM104.505 79.2351C104.95 79.3784 105.331 79.6283 105.63 79.7289L105.053 79.7868L106.072 80.7409C105.352 80.7501 104.523 79.4851 104.505 79.2351ZM106.681 75.7358L106.364 74.5195C106.532 74.8213 106.639 75.2267 107.108 75.6291C106.721 75.3791 106.745 75.6382 106.681 75.7358ZM112.549 82.1096L112.57 81.4999C113.04 81.9023 113.78 82.1431 113.826 82.6552C113.467 82.6613 112.912 82.1065 112.549 82.1096ZM23.5169 10.1932C23.3066 10.1261 23.3066 9.63843 22.9561 9.84876C23.1694 9.91582 23.1694 10.4005 23.5169 10.1932ZM15.4575 17.6308C15.4758 17.6034 15.4971 17.576 15.5215 17.5485C16.8627 19.0574 21.624 23.1755 21.3649 24.09C20.9168 23.9437 20.8589 23.0871 20.4596 23.017C20.4657 23.0749 20.5419 23.0993 20.423 23.2182C19.8378 22.636 17.3443 19.6914 15.4575 17.6308ZM14.3997 17.5363C14.4394 17.5059 14.4881 17.4784 14.5339 17.4479C14.4638 17.4266 14.3815 17.4144 14.2992 17.3992C14.037 17.0334 13.9029 16.756 13.9578 16.6127C14.1894 17.0059 19.7036 22.6451 19.9597 23.0231C19.6427 22.7884 15.7471 19.3104 14.3997 17.5363ZM30.9058 6.02021C30.5674 5.23072 30.2657 6.2915 30.9058 6.02021V6.02021ZM25.4221 9.44334C25.48 9.4342 25.547 9.43725 25.6202 9.44334C25.5989 9.40372 25.544 9.39457 25.4221 9.44334ZM115.305 93.135C115.606 93.4977 116.112 93.8391 116.131 93.9153C116.125 93.9214 116.122 93.9275 116.112 93.9336C116.131 93.9336 116.134 93.9275 116.131 93.9153C116.371 93.7294 115.896 93.2904 115.518 92.9429C115.469 92.8118 115.332 92.6564 115.155 92.4796C115.158 92.4735 115.164 92.4674 115.167 92.4643C115.158 92.4643 115.149 92.4674 115.143 92.4704C114.503 91.8456 113.335 90.9921 113.558 90.2148C114.006 90.3611 115.116 92.2693 115.515 92.3394C115.509 92.2814 115.433 92.2571 115.551 92.1382C116.451 93.0374 116.579 94.2201 117.374 94.5188C117.371 94.2414 117.353 93.8604 117.262 93.4763C117.42 93.3239 117.484 93.3605 117.67 93.1502C117.438 92.9917 117.536 92.6655 117.905 92.6686C117.563 92.4186 117.127 92.0071 117.658 91.5164C117.359 91.4462 117.179 90.733 117.079 90.5287C117.499 90.2239 117.496 90.0685 117.813 90.0441C117.56 89.9648 116.457 88.4224 116.076 88.6053C115.963 89.0351 116.42 88.8522 116.103 89.3186C115.945 88.9955 115.762 88.6785 115.893 88.209C116.195 88.1511 115.734 88.8705 116.274 88.3249C115.756 87.825 115.725 87.4561 115.42 86.8709C115.436 86.88 115.445 86.8861 115.457 86.8922C115.448 86.8587 115.442 86.8221 115.442 86.7916C115.302 86.5539 114.933 86.0113 115.289 85.9076C115.256 85.8436 115.143 85.8193 115.277 85.6729C115.603 85.6851 115.753 86.0662 116.131 85.9747C116.17 85.5388 115.585 85.7949 115.847 85.2706C116.975 84.9718 119.276 89.3064 120.176 89.1692C119.974 89.0077 119.862 88.8004 119.935 88.5047C120.032 88.587 120.109 88.7211 120.313 88.587L118.036 86.2704C117.972 86.374 118.139 86.6788 118.228 86.8343C117.524 85.868 117.1 85.0481 116.789 84.2677C115.405 82.7771 114.037 81.3414 113.323 80.5428C113.396 80.5611 113.521 80.4727 113.646 80.3843C113.409 80.3782 113.18 80.3081 112.961 80.2014C113.421 80.6373 113.79 81.1403 114.21 81.5487L113.156 80.5794C113.198 80.747 113.113 80.8293 113.04 80.9208C113.125 81.0854 113.198 81.2927 113.238 81.5975C112.866 81.186 112.936 81.0458 113.04 80.9208C112.738 80.3355 112.259 80.427 112.29 79.7167C111.632 79.0797 111.183 78.153 111.147 77.6927C111.016 77.711 110.69 78.1347 110.595 78.0798C110.065 77.6379 108.946 76.5832 107.507 75.1719L107.218 75.178L106.815 74.672L107.358 75.0286C102.112 69.8802 92.8423 60.2844 91.9706 58.2878C92.0285 58.2939 92.059 58.364 92.1717 58.2543C91.9431 57.9556 91.6505 57.8001 91.1232 58.1507C91.1689 58.2299 91.3182 58.2574 91.178 58.425C90.8244 58.2147 90.4952 57.98 90.1752 57.7361L90.5105 58.3366L91.4676 58.5225C91.1933 58.6811 91.6749 59.3334 92.2906 59.7815L92.2327 59.0225C92.5467 59.3699 92.7814 60.4368 92.6503 60.6441L93.5465 60.9398C94.0312 61.589 93.3544 61.2476 93.2264 61.4519L93.0374 60.8971C92.5893 60.7508 92.2906 60.6502 92.4004 61.0617C91.9767 60.3027 91.2786 58.8365 89.913 58.1446L90.0654 57.6508C89.1052 56.8948 88.267 56.0017 87.4318 55.1238C87.5781 54.9775 87.7244 54.8312 87.8677 54.6848C88.2853 55.0598 88.6084 55.581 89.1327 55.962C89.2881 55.9986 89.4527 56.0504 89.5716 56.0565C89.4741 55.5231 88.7547 54.7306 88.0902 54.4593C91.7755 50.7588 95.3602 47.1527 98.2803 44.2112C98.4632 43.9277 98.5669 43.6717 98.4937 43.4766C98.6827 42.8883 97.4207 43.7113 98.32 42.4798L99.1796 42.1201L98.5882 43.1809C98.64 43.3882 98.957 43.3089 99.3076 43.1748C102.807 39.6511 105.13 37.304 105.13 37.304C105.13 37.304 105.41 36.3834 105.84 36.2005C106.193 36.5114 106.632 36.3224 106.501 36.0359C106.434 36.0725 106.364 36.0969 106.184 35.8835C108.641 33.1858 115.811 27.0224 117.871 23.5718C117.877 23.6449 117.899 23.7272 117.932 23.8217C118.28 23.3676 119.27 22.9134 119.197 22.4501C119.011 22.8585 118.432 22.8951 118.103 23.1054C117.92 22.8981 117.746 22.8677 117.758 22.764C117.841 22.1422 118.52 21.813 118.542 21.1576C117.96 21.2948 117.88 22.1147 117.073 22.2428C117.569 21.7703 117.383 21.0235 118.203 21.2308C117.566 20.8497 118.021 21.0357 117.688 20.551C116.954 20.9625 114.454 24.2028 113.476 24.1052C113.482 23.651 113.707 23.6571 113.841 23.3157C113.445 22.892 113.698 23.5535 113.146 23.0323C113.445 22.8067 113.829 22.1239 113.787 21.5295C113.223 21.8556 113.116 22.5781 112.455 22.7518C112.802 22.3586 112.985 21.7642 113.125 21.4441C113.067 21.4502 113.04 21.5203 112.921 21.4045C112.86 20.9168 110.757 24.1601 110.132 23.7577C110.507 23.2517 116.1 17.9631 116.091 17.387C116.335 17.9417 116.71 17.3413 116.176 17.3077C116.454 16.8871 116.807 16.189 116.856 15.7105C116.731 15.7775 116.283 15.494 116.262 15.8263C116.344 16.0884 116.615 16.0732 116.585 16.2317C116.439 16.2317 116.481 16.6097 116.207 16.3475C116.237 16.2805 116.347 16.2561 116.213 16.1067C116.015 16.2927 115.814 16.4756 115.616 16.6615C115.695 16.9236 115.966 16.9084 115.936 17.0639C115.536 17.579 111.455 21.4137 109.757 22.4135C111.369 20.9625 112.845 19.5421 112.851 19.1549C112.68 19.3104 111.824 20.0237 110.757 20.9503C112.598 19.1001 115.268 16.378 115.045 16.253C115.03 16.25 115.006 16.2561 114.978 16.2683C115.713 15.5885 116.231 15.0581 116.289 14.857C115.759 14.8905 115.323 15.2898 115.323 15.2898L115.286 15.0886C114.933 15.3569 115.152 15.8781 114.357 15.7257C114.555 15.5398 114.753 15.3538 114.951 15.1679C114.323 14.7808 114.518 15.2837 114.466 14.6832C113.924 15.1923 111.235 17.8991 109.041 19.7554C108.943 19.7432 108.876 19.7493 108.943 19.8377C107.754 20.8375 106.724 21.5752 106.279 21.5508C106.526 21.5783 106.575 21.0692 106.422 20.7065C106.145 20.9808 105.962 20.8802 105.678 20.9503C105.282 19.6457 109.147 16.7499 108.897 15.6129C108.638 15.8385 105.822 18.841 105.358 18.652C105.672 18.5422 105.944 18.3654 105.7 17.8412C105.252 18.0088 105.224 18.2771 104.63 18.1734C105.105 18.1917 104.733 17.5668 104.849 17.2376C105.249 17.5973 104.749 17.515 105.005 17.8046C105.523 17.5973 107.934 14.6741 108.736 14.5308C108.641 14.6009 108.775 14.9271 108.909 14.8844C108.678 14.6649 109.611 14.6588 109.162 14.3967C109.034 14.3875 109.089 14.7503 108.833 14.479C108.876 14.3052 109.226 14.2869 109.184 14.0705C109.425 14.0583 109.678 14.0339 109.537 13.6956C109.501 13.8602 109.226 13.8511 109.044 13.909C108.181 13.656 105.694 17.5241 104.971 17.3626C104.98 17.0151 108.199 14.0309 108.391 13.7108C108.242 13.7108 107.718 13.5767 107.617 13.2658C108.01 13.8023 108.278 13.0707 108.029 13.1012C107.885 13.1042 107.934 13.4914 107.66 13.2262C107.705 13.1256 107.989 13.1439 107.583 12.8177C107.273 12.6836 107.27 13.1774 106.928 12.9884C106.983 12.8665 107.455 12.644 107.138 12.5373C107.193 12.5007 107.702 11.9734 108.214 11.4003C108.324 11.4216 108.467 11.5436 108.553 11.7265C108.574 11.2814 109.708 11.2936 109.111 10.3883C109.05 10.7358 108.778 10.8821 108.516 11.0558C108.992 10.5011 109.382 9.98592 109.275 9.91277C109.455 9.89143 109.516 9.50736 109.236 9.46163C109.373 9.75426 108.397 9.14462 108.547 8.93734C108.218 9.0989 108.224 9.37933 107.894 9.35799C107.769 8.79103 108.754 8.83675 108.833 8.40086C108.614 8.3277 108.574 8.62033 108.306 8.44963C108.367 8.29417 108.467 8.157 108.349 7.91619C108.093 8.01983 108.047 8.54412 107.657 8.37952C107.468 8.157 107.736 8.35209 107.779 8.25454C107.33 7.76073 107.437 8.39171 107.05 8.01983C107.05 7.87656 107.434 7.91924 107.172 7.64795C107.126 8.03202 106.767 7.47725 106.648 7.45286C106.858 7.76988 106.209 7.50468 106.809 7.77902C106.44 7.69367 100.981 13.2079 100.579 13.0585C100.493 12.6714 106.154 7.48944 105.959 7.17852C105.776 7.33703 105.87 7.10537 105.718 6.93467C105.492 7.01697 100.24 12.8238 99.774 12.4184C99.905 12.0861 101.871 10.3791 103.529 8.80627C103.715 8.81236 103.846 8.69348 103.816 8.53193C104.999 7.39495 105.95 6.37685 105.834 6.06593C105.538 6.33417 104.45 7.42238 103.182 8.63557L103.151 8.64167L103.164 8.65081C101.938 9.82132 100.545 11.1016 99.5332 11.8636C99.5484 12.0008 99.4478 12.0526 99.3015 12.0343C98.8107 12.3849 98.4328 12.583 98.2468 12.5434C98.3261 12.3788 99.146 12.4245 98.5273 11.9977C98.2011 11.7569 98.0944 12.2264 98.0487 12.5068C97.7987 11.9916 97.8536 12.5281 97.5671 12.2721C97.6006 11.5009 104.038 6.07203 104.142 5.35874C103.923 5.36484 98.5669 10.8821 98.2834 10.7602C98.0121 10.4614 103.596 5.19414 103.377 4.92285C102.822 4.88322 97.3933 11.4155 96.3264 11.1107C96.4728 10.6626 97.3293 10.6047 97.3994 10.2054C97.3415 10.2115 97.3171 10.2877 97.1982 10.1688C98.0975 9.2696 104.538 3.88341 104.837 3.08478C104.56 3.08783 104.179 3.10612 103.795 3.19756C103.642 3.03906 103.676 2.97505 103.468 2.7891C103.31 3.02077 102.984 2.92323 102.987 2.55439C102.737 2.89579 102.325 3.33169 101.835 2.8013C101.801 2.94456 100.417 4.26139 98.9601 5.61175L98.954 5.59041C98.954 5.59955 98.954 5.6087 98.951 5.61784L98.7772 5.7794C98.6644 5.80988 98.5455 5.81293 98.6065 5.9379C97.1312 7.29741 95.6863 8.58985 95.5888 8.63862C95.3998 8.37647 96.0308 7.51688 96.5307 6.82493C96.4575 6.81884 96.3844 6.81579 96.299 6.7914C96.2411 6.48963 96.9605 6.94991 96.4148 6.41038C95.9149 6.92857 95.5461 6.95905 94.9608 7.26388C95.1956 6.93162 95.7229 6.32807 95.5766 5.81902C95.5126 5.85255 95.4882 5.96534 95.3419 5.83122C95.3541 5.50506 95.7351 5.3557 95.6436 4.97772C95.2108 4.93809 95.4638 5.52335 94.9395 5.26425C94.8481 4.91371 95.2596 4.39246 95.8692 3.81025C94.7078 4.90151 93.6867 5.81598 93.5648 5.78549C93.6654 5.66661 99.1186 0.335297 98.8138 0.0213318C96.8538 1.41741 90.1112 8.54107 88.4682 10.0073C88.4865 9.93411 88.398 9.80913 88.3097 9.68415C88.27 11.0193 86.3527 12.1258 85.615 12.1837C85.6333 12.3148 86.057 12.6379 86.0022 12.7354C84.219 14.8722 70.4075 28.6318 65.2256 32.8292C61.3543 28.9732 57.5624 25.2026 54.4928 22.1544C54.2094 21.9715 53.9533 21.8709 53.7613 21.941C53.173 21.752 53.996 23.014 52.7645 22.1147L52.4048 21.2552L53.4656 21.8465C53.6729 21.7947 53.5936 21.4777 53.4595 21.1271C49.9358 17.6278 47.5886 15.305 47.5886 15.305C47.5886 15.305 46.6681 15.0246 46.4852 14.5948C46.7961 14.2412 46.6102 13.8023 46.3206 13.9364C46.3572 14.0004 46.3815 14.0705 46.1682 14.2534C43.3486 11.6838 36.7431 3.97181 33.4053 2.31968C33.1859 2.50867 33.1554 2.69156 33.0456 2.67937C32.4238 2.59707 32.0946 1.91732 31.4392 1.89598C31.5764 2.47819 32.3964 2.55744 32.5244 3.36522C32.0519 2.87141 31.3051 3.05125 31.5124 2.23433C31.1314 2.87141 31.3173 2.41418 30.8296 2.74948C31.2411 3.4841 34.4813 5.98363 34.3838 6.9621C33.9296 6.95601 33.9357 6.73044 33.5943 6.59632C33.1706 6.99258 33.8321 6.73958 33.3108 7.29131C33.0853 6.99563 32.4025 6.60851 31.8081 6.65119C32.1312 7.21206 32.8566 7.32179 33.0304 7.98325C32.6372 7.63576 32.0428 7.45286 31.7227 7.31265C31.7258 7.37361 31.7989 7.398 31.6831 7.51688C31.1954 7.57784 34.4387 9.6811 34.0363 10.306C33.5303 9.93106 28.2417 4.33759 27.6656 4.34674C28.2203 4.10288 27.6198 3.72795 27.5863 4.26139C27.1656 3.984 26.4676 3.63041 25.989 3.58164C26.0561 3.70662 25.7726 4.1547 26.1049 4.17604C26.367 4.09374 26.3518 3.8255 26.5103 3.85293C26.5103 3.99924 26.8913 3.95657 26.6261 4.23091C26.559 4.20043 26.5347 4.08764 26.3853 4.22481C26.5712 4.42294 26.7541 4.62413 26.9401 4.82226C27.2022 4.74301 27.187 4.47172 27.3424 4.5022C27.9521 4.97467 33.2651 10.6596 32.9115 11.3485C32.6555 11.1412 26.7176 5.06002 26.5347 5.39532C26.5316 5.41056 26.5377 5.43495 26.5499 5.46238C25.8702 4.72777 25.3398 4.20957 25.1386 4.15165C25.1721 4.68204 25.5714 5.11794 25.5714 5.11794L25.3703 5.15451C25.6385 5.50811 26.1597 5.28864 26.0073 6.08422C25.8214 5.88608 25.6354 5.68795 25.4495 5.48982C25.0624 6.11775 25.5653 5.92266 24.9648 5.97448C25.7604 6.82493 31.8995 12.8939 31.8325 14.1589C31.8599 13.912 31.3508 13.8602 30.9881 14.0157C31.2624 14.293 31.1618 14.4759 31.232 14.7594C29.9273 15.1526 27.0315 11.2906 25.8945 11.5405C26.1201 11.7996 29.1256 14.6162 28.9336 15.0795C28.8239 14.7655 28.6471 14.4942 28.1228 14.7381C28.2904 15.1862 28.5587 15.2136 28.455 15.808C28.4733 15.3325 27.8484 15.7044 27.5192 15.5885C27.8789 15.1892 27.7966 15.6891 28.0862 15.4331C27.8789 14.9149 24.9557 12.5037 24.8124 11.7021C24.8825 11.7966 25.2087 11.6624 25.166 11.5283C24.9465 11.76 24.9405 10.8272 24.6783 11.2753C24.6692 11.4033 25.0319 11.3485 24.7606 11.6045C24.5594 11.5558 24.5655 11.0894 24.2302 11.3119C23.6602 12.0831 27.8088 14.7228 27.6412 15.4666C27.2937 15.4575 24.3064 12.2386 23.9894 12.0465C23.9894 12.1959 23.8553 12.7202 23.5444 12.8208C24.0809 12.4275 23.3493 12.1593 23.3767 12.4093C23.3798 12.5525 23.7669 12.5037 23.5017 12.7781C23.4072 12.7354 23.4163 12.4794 23.1451 12.7933C23.0597 12.6714 23.0323 12.391 22.825 12.4885C22.7884 12.6135 22.9073 12.9488 23.0719 12.9976C23.1115 13.1804 23.4163 13.2323 23.2609 13.5097C23.139 13.4548 22.9164 12.9823 22.8098 13.2993C22.7305 13.1835 20.3499 10.9248 20.1852 11.1625C20.1639 10.9827 19.7768 10.9217 19.7341 11.2022C20.0267 11.065 19.4171 12.0404 19.2098 11.8911C19.3714 12.2203 19.6518 12.2142 19.6305 12.5434C19.0635 12.6683 19.1092 11.6838 18.6733 11.6045C18.6002 11.824 18.8928 11.8636 18.7221 12.1319C18.5666 12.0739 18.4295 11.9703 18.1887 12.0892C18.2923 12.3452 18.8196 12.391 18.652 12.7811C18.4295 12.9701 18.6246 12.7019 18.527 12.6592C18.0332 13.1073 18.6642 13.0006 18.2923 13.3877C18.149 13.3877 18.1917 13.0037 17.9204 13.2658C18.3045 13.3115 17.7497 13.6712 17.7253 13.7901C18.0424 13.5798 17.7772 14.226 18.0515 13.6285C17.9662 13.9974 23.4804 19.4567 23.331 19.8591C22.9439 19.9444 17.7619 14.2839 17.451 14.479C17.6095 14.6619 17.3778 14.5674 17.2071 14.7228C17.2894 14.9484 23.0993 20.2005 22.6909 20.6668C22.0995 20.4352 17.1005 14.3205 16.3354 14.607C16.8627 15.1923 20.5785 18.844 22.1331 20.9077C22.2702 20.8924 22.322 20.993 22.3038 21.1393C22.6543 21.6301 22.8524 22.0081 22.8128 22.194C22.6482 22.1147 22.6939 21.2948 22.2672 21.9136C22.0264 22.2397 22.4958 22.3464 22.7762 22.3921C22.2611 22.6421 22.7976 22.5872 22.5415 22.8738C21.7703 22.8402 16.3415 16.4055 15.6282 16.2988C15.6343 16.5182 21.1515 21.8739 21.0296 22.1574C20.7827 22.383 17.1614 18.6276 15.744 17.4236L15.7532 17.4175L15.7349 17.4144C15.6251 17.3199 15.5276 17.2407 15.4453 17.1827C15.2593 16.9145 15.0978 16.5365 14.6223 16.7438C14.0157 16.1128 13.5493 15.6739 13.3542 15.6007C13.3573 15.8781 13.3755 16.2591 13.467 16.6402C13.3085 16.7926 13.2445 16.759 13.0585 16.9663C13.2902 17.1248 13.1927 17.451 12.8238 17.4479C13.1652 17.6948 13.6011 18.1094 13.0707 18.6002C13.3603 18.652 18.7983 24.6265 18.8989 24.8307C18.6368 25.0197 17.7772 24.3887 17.0852 23.8888C17.0791 23.962 17.0761 24.0351 17.0547 24.1174C16.753 24.1753 17.2132 23.456 16.6737 24.0046C17.1919 24.5045 17.2224 24.8734 17.5272 25.4586C17.195 25.2239 16.5884 24.6966 16.0824 24.8459C16.1159 24.91 16.2287 24.9343 16.0946 25.0807C15.7684 25.0685 15.619 24.6874 15.2411 24.7789C15.2014 25.2117 15.7867 24.9587 15.5245 25.483C15.177 25.5745 14.6527 25.163 14.0705 24.5533C15.1618 25.7147 16.0763 26.7328 16.0458 26.8578C15.9269 26.7572 10.5956 21.3039 10.2816 21.6087C11.6777 23.5687 18.8014 30.3114 20.2645 31.9544C20.1913 31.9361 20.0664 32.0245 19.9414 32.1129C21.2765 32.1525 22.383 34.0698 22.4409 34.8075C22.572 34.7892 22.8951 34.3655 22.9926 34.4204C25.0776 36.1639 38.2581 49.384 42.7786 54.8251C42.5164 55.0872 42.2543 55.3494 41.9921 55.6146C41.922 55.8615 42.2817 55.8493 42.2787 56.0931C41.4435 57.8946 39.1573 58.803 37.813 61.0129C37.9136 61.0769 38.2184 60.9093 37.9685 61.2873C36.0512 62.601 36.2188 63.9636 33.8443 65.5334C33.8412 65.3627 33.9723 65.0335 34.018 64.8262L33.5334 64.9756C34.0089 64.5184 34.0668 64.5976 34.018 64.8262L34.4935 64.6799C34.8898 63.8569 36.4048 62.281 37.5113 61.5403C37.3528 61.2659 36.8071 62.1773 36.5998 62.0493L37.7033 60.5831C37.4838 60.6014 37.4107 60.449 37.1699 60.6106C37.1272 60.641 37.0845 60.6746 37.0418 60.7142C37.0906 60.6685 37.1333 60.638 37.1699 60.6106C37.4808 60.3941 37.8069 60.3576 38.2032 59.818C38.0721 59.8912 38.0874 59.7936 37.999 59.8211C38.8342 59.4705 39.4804 58.2482 40.0413 57.5746C31.2929 66.4144 22.7823 75.3182 22.7823 75.3182C22.7823 75.3182 22.5019 76.2387 22.0721 76.4216C21.7185 76.1107 21.2796 76.2997 21.4137 76.5862C21.4777 76.5497 21.5508 76.5253 21.7307 76.7386C19.161 79.5582 14.2473 83.7068 12.5952 87.0446C12.7842 87.2641 12.9671 87.2946 12.9549 87.4013C12.8726 88.0231 12.1928 88.3523 12.1715 89.0077C12.7537 88.8705 12.833 88.0505 13.6407 87.9225C13.1439 88.395 13.3298 89.1418 12.5099 88.9345C13.1469 89.3156 12.6897 89.1327 13.025 89.6173C13.2932 89.468 13.8724 88.8644 14.54 88.1694C14.7472 88.4712 13.8998 88.5108 14.5217 88.8034C14.3174 88.4285 15.1344 88.5718 14.5491 88.1603C15.7044 86.9593 17.137 85.4809 17.7558 85.5449C17.7497 85.9991 14.8936 88.6206 14.7594 88.965C15.1557 89.3887 17.5333 86.0966 18.085 86.6179C17.7894 86.8435 17.4022 87.5262 17.4449 88.1206C18.0058 87.7975 18.1155 87.069 18.777 86.8983C18.4295 87.2915 18.2466 87.8859 18.1064 88.206C18.1643 88.2029 18.1917 88.1298 18.3106 88.2456C18.3746 88.7333 17.326 88.6388 17.9509 89.0412C17.576 89.5472 14.6131 92.2083 14.6192 92.7844C14.3754 92.2266 14.0004 92.8301 14.5339 92.8637C14.2565 93.2843 13.9029 93.9824 13.8541 94.4609C13.9791 94.3939 14.4272 94.6773 14.4485 94.3451C14.3662 94.0829 14.0949 94.0982 14.1254 93.9397C14.2717 93.9397 14.229 93.5586 14.5034 93.8238C14.4729 93.8909 14.3601 93.9153 14.4973 94.0647C14.6954 93.8787 14.8966 93.6958 15.0947 93.5099C15.0155 93.2477 14.7442 93.263 14.7747 93.1075C15.2471 92.4979 18.3015 89.8155 18.9903 90.169C18.7831 90.4251 15.3325 93.7324 15.6648 93.9183C16.0702 94.0281 16.0763 93.3178 16.6219 93.7202C16.0122 94.467 14.6436 94.5585 14.4211 95.3114C14.9515 95.2778 15.3904 94.8785 15.3904 94.8785L15.427 95.0797C15.7806 94.8115 15.5611 94.2902 16.3567 94.4426C16.1586 94.6286 15.9604 94.8176 15.7623 95.0035C16.3902 95.3906 16.1951 94.8877 16.247 95.4912C17.0944 94.6956 18.9568 92.7631 20.2249 92.8301C19.978 92.8027 19.9261 93.3117 20.0816 93.6745C20.359 93.4001 20.5419 93.5007 20.8254 93.4306C21.2186 94.7353 18.9324 96.0551 19.1854 97.1891C19.4445 96.9635 20.6821 95.5369 21.1454 95.729C20.8315 95.8387 19.5085 97.0671 19.7524 97.5914C20.2005 97.4238 21.2796 96.1039 21.874 96.2075C21.3984 96.1893 20.7187 97.8658 20.6029 98.195C20.2035 97.8353 20.7034 97.9176 20.4474 97.628C19.917 97.8383 20.0328 98.2712 19.2891 98.2834C19.4781 98.3047 19.3287 97.8658 19.1702 97.9176C19.4019 98.1371 18.4691 98.1432 18.9172 98.4053C19.0452 98.4144 18.9903 98.0517 19.2464 98.323C19.1976 98.5242 18.7313 98.5181 18.9538 98.8534C19.725 99.4234 19.7341 97.9054 20.4809 98.073C20.4718 98.4205 19.8835 98.7772 19.6884 99.0942C19.8378 99.0942 20.3651 99.2283 20.4626 99.5392C20.1487 99.1094 19.914 99.4935 19.9597 99.649C19.9719 99.7618 20.2127 100.158 20.0755 100.164C19.536 100.737 17.1553 101.978 17.1401 102.795C17.6644 102.319 20.3773 100.826 20.2066 99.8014C20.1609 99.7557 20.1212 99.7221 20.0877 99.6947C20.1852 99.6307 20.1731 99.3442 20.4169 99.5819C20.3712 99.6825 20.0877 99.6642 20.4962 99.9904C20.8071 100.124 20.8101 99.6307 21.1515 99.8197C21.0967 99.9416 20.6181 100.167 20.9443 100.271C21.0357 100.128 21.1851 100.091 21.432 100.265C21.2521 100.286 21.1912 100.67 21.4716 100.716C21.3344 100.423 22.3098 101.036 22.1605 101.24C22.4897 101.079 22.4836 100.798 22.8128 100.819C22.9378 101.386 21.9532 101.341 21.874 101.777C22.0934 101.85 22.1331 101.557 22.4013 101.728C22.3434 101.883 22.2397 102.02 22.3586 102.264C22.6147 102.161 22.6604 101.636 23.0506 101.804C23.2396 102.027 22.9713 101.831 22.9286 101.929C23.3767 102.423 23.27 101.792 23.6572 102.164C23.6572 102.307 23.2731 102.264 23.5352 102.536C23.581 102.152 23.9406 102.706 24.0595 102.731C23.8492 102.414 24.4985 102.679 23.898 102.405C24.2668 102.49 24.468 102.237 24.8673 102.386C24.9526 102.773 24.5503 102.694 24.7454 103.008C24.9283 102.85 24.8338 103.078 24.9862 103.249C25.2117 103.167 25.2026 102.618 25.669 103.026C25.4373 103.618 24.5838 103.356 24.8673 104.121C25.6233 103.438 27.2967 101.636 28.2478 101.85C28.1685 102.014 27.3485 101.969 27.9673 102.395C28.2935 102.636 28.4002 102.167 28.4459 101.886C28.6958 102.402 28.641 101.865 28.9275 102.121C28.894 102.892 26.6657 104.115 26.5621 104.825C26.7816 104.819 26.8791 104.563 27.1595 104.682C27.4308 104.98 27.1047 104.986 27.3242 105.258C27.8789 105.297 29.0982 102.975 30.1681 103.276C30.0218 103.724 28.1136 104.834 28.0435 105.233C28.1014 105.227 28.1258 105.151 28.2447 105.27C27.3455 106.169 26.1628 106.297 25.8641 107.093C26.1414 107.093 26.5225 107.071 26.9065 106.98C27.059 107.138 27.0254 107.202 27.2327 107.388C27.3912 107.157 27.7174 107.254 27.7143 107.623C27.9612 107.282 28.3758 106.843 28.8665 107.376C28.9367 107.077 29.653 106.898 29.8542 106.797C30.159 107.221 30.3144 107.215 30.3388 107.532C30.4181 107.279 31.9635 106.175 31.7776 105.794C31.3478 105.681 31.5337 106.139 31.0643 105.822C31.3905 105.66 31.7044 105.48 32.1739 105.611C32.2318 105.913 31.5124 105.453 32.058 105.992C32.5579 105.474 32.9268 105.447 33.512 105.139C33.4998 105.154 33.4968 105.163 33.4907 105.175C33.5242 105.166 33.5577 105.16 33.5913 105.16C33.829 105.02 34.3747 104.651 34.4752 105.008C34.5393 104.974 34.5636 104.861 34.71 104.996C34.6978 105.322 34.3167 105.471 34.4082 105.849C34.841 105.889 34.588 105.303 35.1123 105.562C35.411 106.693 31.0765 108.992 31.2137 109.891C31.3752 109.69 31.5795 109.577 31.8782 109.65C31.7928 109.748 31.6618 109.824 31.7959 110.028L34.1125 107.751C34.0089 107.687 33.7041 107.855 33.5516 107.943C34.5179 107.239 35.3379 106.815 36.1182 106.504C37.6088 105.121 39.0445 103.752 39.8431 103.039C39.8249 103.112 39.9132 103.237 40.0016 103.362C40.0077 103.124 40.0779 102.895 40.1845 102.676C39.7486 103.136 39.2457 103.505 38.8372 103.926L39.8066 102.871C39.6389 102.917 39.5566 102.828 39.4682 102.755C39.3036 102.84 39.0963 102.914 38.7915 102.953C39.203 102.581 39.3432 102.655 39.4682 102.755C40.0535 102.453 39.962 101.975 40.6723 102.005C41.3093 101.347 42.2329 100.899 42.6963 100.862C42.678 100.731 42.2543 100.408 42.3091 100.307C42.7511 99.78 43.8058 98.6614 45.2171 97.2196L45.2354 96.933L45.7414 96.5307L45.3848 97.0732C50.5332 91.8273 60.129 82.5577 62.1255 81.6859C62.1194 81.7468 62.0493 81.7743 62.1591 81.8871C62.4578 81.6584 62.6133 81.3658 62.2627 80.8354C62.1835 80.8812 62.156 81.0336 61.9884 80.8903C62.1987 80.5367 62.4334 80.2075 62.6773 79.8905L62.0768 80.2258L61.8908 81.1829C61.7323 80.9086 61.08 81.3932 60.6319 82.0059L61.3909 81.948C61.0434 82.262 59.9766 82.4967 59.7723 82.3656L59.4767 83.2618C58.8274 83.7465 59.1688 83.0698 58.9646 82.9417L59.5193 82.7528C59.6656 82.3047 59.7662 82.0059 59.3578 82.1157C60.1168 81.692 61.583 80.9909 62.2749 79.6283L62.7687 79.7808C63.2595 79.1589 63.8082 78.5889 64.3721 78.0372C64.5306 78.1469 64.5428 78.0798 64.4605 77.9488C64.622 77.7903 64.7866 77.6348 64.9512 77.4793C65.0975 77.6257 65.2469 77.772 65.3932 77.9213C65.0793 78.1987 64.7348 78.47 64.4574 78.848C64.4208 79.0035 64.369 79.1681 64.3629 79.2869C64.7805 79.2107 65.3536 78.7535 65.7163 78.2414C65.7743 78.2993 65.8322 78.3603 65.8931 78.4182C66.14 78.4883 66.1278 78.1286 66.3717 78.1317C68.1732 78.9669 69.0816 81.253 71.2915 82.5973C71.3555 82.4967 71.1879 82.1919 71.5658 82.4418C72.8796 84.3592 74.2422 84.1915 75.812 86.5661C75.6413 86.5691 75.3121 86.438 75.1048 86.3923L75.2511 86.877C74.7969 86.4015 74.8732 86.3435 75.1048 86.3923L74.9585 85.9137C74.1324 85.5175 72.5596 84.0025 71.8188 82.896C71.5476 83.0545 72.4559 83.6002 72.3279 83.8074L70.8617 82.704C70.88 82.9235 70.7276 82.9966 70.8891 83.2374C70.9196 83.2801 70.9532 83.3228 70.9928 83.3685C70.9501 83.3197 70.9166 83.277 70.8891 83.2374C70.6727 82.9265 70.6361 82.6003 70.0966 82.2041C70.1698 82.3351 70.0722 82.3169 70.0997 82.4083C69.7491 81.5731 68.5268 80.9269 67.8531 80.366C76.6929 89.1144 85.5967 97.625 85.5967 97.625C85.5967 97.625 86.5173 97.9054 86.7002 98.3352C86.3893 98.6888 86.5752 99.1277 86.8648 98.9967C86.8282 98.9296 86.8038 98.8595 87.0172 98.6796C89.8368 101.249 93.9854 106.163 97.3232 107.815C97.5427 107.626 97.5762 107.443 97.6829 107.455C98.3047 107.538 98.6339 108.217 99.2893 108.239C99.1521 107.657 98.3322 107.577 98.2041 106.77C98.6766 107.266 99.4234 107.084 99.2161 107.9C99.5972 107.263 99.4112 107.721 99.8989 107.382C99.4874 106.648 95.7259 103.63 95.8265 102.651C96.2807 102.658 98.9022 105.514 99.2466 105.648C99.6703 105.252 96.3783 102.874 96.8995 102.322C97.1251 102.618 97.8079 103.005 98.4023 102.962C98.0792 102.402 97.3537 102.292 97.1799 101.63C97.5732 101.978 98.1676 102.161 98.4876 102.301C98.4846 102.24 98.4114 102.213 98.5273 102.097C99.015 102.036 98.9205 103.081 99.3228 102.456C99.8288 102.831 102.487 105.794 103.066 105.785C102.511 106.029 103.112 106.404 103.145 105.87C103.566 106.148 104.264 106.501 104.743 106.547L104.739 106.541C105.367 107.44 106.218 108.778 106.831 108.788C106.489 108.413 105.63 106.916 104.791 106.157C104.8 106.05 104.77 105.962 104.63 105.953C104.608 105.959 104.59 105.968 104.572 105.977C104.456 105.892 104.34 105.825 104.23 105.779L103.795 105.306C103.532 105.386 103.548 105.657 103.392 105.627C102.783 105.154 100.1 102.1 100.454 101.411C100.71 101.618 104.017 105.069 104.203 104.736C104.313 104.331 103.603 104.325 104.005 103.779C104.752 104.389 104.843 105.758 105.596 105.98C105.563 105.45 105.163 105.011 105.163 105.011L105.364 104.974C105.096 104.621 104.575 104.84 104.727 104.044C104.913 104.243 105.099 104.441 105.285 104.639C105.672 104.011 105.169 104.206 105.77 104.154C104.974 103.304 103.042 101.441 103.112 100.176C103.081 100.423 103.593 100.475 103.956 100.32C103.682 100.042 103.782 99.8593 103.712 99.5758C105.017 99.1826 106.337 101.469 107.471 101.216C107.245 100.957 105.819 99.7191 106.011 99.2558C106.12 99.5697 107.349 100.893 107.873 100.649C107.705 100.201 106.386 99.1216 106.489 98.5272C106.471 99.0028 108.147 99.6825 108.474 99.7983C108.114 100.198 108.196 99.6977 107.907 99.9538C108.117 100.484 108.55 100.368 108.562 101.112C108.583 100.923 108.144 101.072 108.196 101.231C108.416 100.999 108.422 101.932 108.684 101.484C108.693 101.356 108.33 101.411 108.602 101.155C108.803 101.204 108.797 101.67 109.132 101.447C109.702 100.676 108.184 100.667 108.349 99.9233C108.699 99.9325 109.053 100.521 109.373 100.713C109.373 100.563 109.504 100.036 109.818 99.9385C109.281 100.332 110.013 100.6 109.982 100.35C109.979 100.207 109.592 100.256 109.857 99.9812C109.958 100.027 109.94 100.31 110.266 99.902C110.4 99.591 109.906 99.588 110.095 99.2466C110.217 99.3015 110.44 99.78 110.546 99.4539C110.403 99.3624 110.366 99.2161 110.54 98.9662C110.562 99.146 110.946 99.2039 110.991 98.9266C110.699 99.0637 111.308 98.0883 111.516 98.2376C111.354 97.9084 111.074 97.9145 111.095 97.5853C111.662 97.4604 111.616 98.4449 112.052 98.5242C112.125 98.3047 111.833 98.2651 112.003 97.9968C112.159 98.0548 112.293 98.1584 112.537 98.0395C112.433 97.7835 111.909 97.7377 112.073 97.3476C112.296 97.1586 112.101 97.4268 112.198 97.4695C112.692 97.0214 112.061 97.1281 112.433 96.741C112.576 96.741 112.534 97.1251 112.805 96.8629C112.421 96.8172 112.976 96.4575 113 96.3356C112.686 96.5459 112.948 95.8997 112.674 96.4971C112.759 96.1283 112.506 95.9271 112.656 95.5278C113.043 95.4425 112.964 95.8448 113.278 95.6497C113.119 95.4668 113.351 95.5613 113.521 95.4059C113.439 95.1803 112.89 95.1894 113.299 94.7231C113.89 94.9547 113.628 95.8082 114.393 95.5247C113.71 94.7688 111.909 93.0953 112.122 92.1473C112.287 92.2266 112.241 93.0466 112.668 92.4278C112.909 92.1016 112.439 91.9949 112.159 91.9492C112.674 91.6992 112.137 91.7541 112.394 91.4676C113.165 91.5011 114.387 93.7293 115.097 93.833C115.091 93.6135 114.835 93.516 114.954 93.2355C115.14 93.0587 115.213 93.1136 115.305 93.135ZM16.4847 28.9001C16.1708 29.3695 16.6249 29.1835 16.5122 29.6133C16.5091 29.6164 16.5061 29.6133 16.503 29.6164C16.5762 29.6682 16.6493 29.7231 16.7286 29.7779C16.753 29.4335 16.6188 29.1653 16.4847 28.9001ZM16.503 29.6164C16.1829 29.3878 15.9269 29.2201 15.8294 29.2262C16.0793 29.3055 16.1342 29.7871 16.503 29.6164ZM104.578 112.433C104.517 112.442 104.453 112.439 104.38 112.433C104.401 112.473 104.456 112.482 104.578 112.433ZM116.756 93.4855C116.521 93.0923 116.271 92.7113 116.012 92.3333C116.405 92.629 117.076 92.6716 116.756 93.4855Z" fill="#E30B0F"/>
<path d="M0 70.5813H23.9315L23.9528 70.3831L24.8338 62.0432H8.25455L9.6171 49.2408H26.1902L27.0925 40.7027H3.16404L0 70.5813Z" fill="white"/>
<path d="M47.3692 40.7027L45.1074 62.0432H34.076L36.3347 40.7027H28.9824L25.8184 70.5813H44.2052L43.3059 86.8526L51.5605 70.5813L54.7215 40.7027H47.3692Z" fill="white"/>
<path d="M65.1494 40.7027L66.0516 24.4314L57.7971 40.7027L54.6331 70.5813H80.3752L83.5362 40.7027H65.1494ZM73.9191 62.0432H62.8876L64.2471 49.2377H75.2786L73.9191 62.0432Z" fill="white"/>
<path d="M112.287 40.7027H86.5447L85.6454 49.2408H111.385L112.287 40.7027Z" fill="white"/>
<path d="M111.165 51.3745H85.423L84.5055 59.9095H110.245L111.165 51.3745Z" fill="white"/>
<path d="M83.3837 70.5813H109.123L110.025 62.0432H84.2829L83.3837 70.5813Z" fill="white"/>
<path d="M112.128 70.5813L118.584 79.8874L121.745 49.2408H129.101L130 40.7027H115.292L112.128 70.5813Z" fill="white"/>
<path d="M95.1011 103.075H92.6473V112.839H95.1011V114.576H88.2853V112.839H90.7391V103.075H88.2853V101.356H95.1011V103.075Z" fill="#573838"/>
<path d="M12.6714 103.264C13.8237 102.075 15.4484 101.301 17.2407 101.301C20.2615 101.301 22.6421 103.191 23.395 106.172H21.5082C20.8102 104.191 19.1855 103.188 17.2407 103.188C15.9757 103.188 14.8235 103.737 13.9913 104.605C13.1592 105.474 12.6318 106.645 12.6318 108.004C12.6318 109.327 13.1592 110.498 13.9913 111.366C14.8235 112.235 15.9727 112.784 17.2407 112.784C19.2434 112.784 20.9412 111.631 21.621 109.629H23.4895C22.7336 112.631 20.3163 114.671 17.2377 114.671C15.4423 114.671 13.8206 113.915 12.6684 112.708C11.5345 111.5 10.7785 109.836 10.7785 108.004C10.7816 106.133 11.5375 104.471 12.6714 103.264Z" fill="#573838"/>
<path d="M27.0803 103.13C28.3087 101.883 30.0279 101.109 31.8964 101.109C33.7863 101.109 35.4842 101.883 36.7309 103.13C37.938 104.377 38.7153 106.075 38.7153 107.964C38.7153 109.851 37.941 111.552 36.7309 112.799C35.4842 114.064 33.7863 114.82 31.8964 114.82C30.0279 114.82 28.3087 114.064 27.0803 112.799C25.8732 111.552 25.0989 109.851 25.0989 107.964C25.0989 106.078 25.8732 104.377 27.0803 103.13ZM35.3531 104.511C34.4478 103.606 33.2194 103.057 31.8964 103.057C30.5735 103.057 29.3664 103.606 28.4794 104.511C27.5924 105.38 27.0437 106.608 27.0437 107.968C27.0437 109.327 27.5924 110.555 28.4794 111.424C29.3664 112.33 30.5766 112.878 31.8964 112.878C33.2194 112.878 34.4447 112.33 35.3531 111.424C36.2219 110.555 36.7705 109.345 36.7705 107.968C36.7675 106.587 36.2219 105.38 35.3531 104.511Z" fill="#573838"/>
<path d="M42.5468 114.576H40.6387V101.356H42.1872L46.5491 107.776L50.9111 101.356H52.423V114.576H50.5362V105.264L47.0795 110.403H46.0035L42.5468 105.264V114.576Z" fill="#573838"/>
<path d="M52.2738 114.576H50.3656V101.356H51.9141L56.2761 107.776L60.6381 101.356H62.15V114.576H60.2601V105.264L56.8034 110.403H55.7274L52.2738 105.264V114.576Z" fill="#573838"/>
<path d="M64.4147 110.61V101.374H66.3412V110.629C66.3412 112.083 67.908 112.802 69.3071 112.802C70.6849 112.802 72.2517 112.064 72.2517 110.61V101.374H74.1781V110.629C74.1781 113.311 71.5719 114.707 69.3071 114.707C66.9844 114.707 64.4147 113.311 64.4147 110.61Z" fill="#573838"/>
<path d="M76.6533 114.576V101.356H78.1256L84.5634 110.665V101.356H86.4533V114.576H84.9414L78.5585 105.34V114.576H76.6533Z" fill="#573838"/>
<path d="M100.655 114.576V103.17H96.6495V101.356H106.547V103.17H102.56V114.576H100.655Z" fill="#573838"/>
<path d="M109.739 101.356L113.345 107.172L116.951 101.356H119.218L114.308 109.193V114.576H112.381V109.193L107.489 101.356H109.739Z" fill="#573838"/>
</g>
<defs>
<clipPath id="clip0_518_14192">
<rect width="130" height="123.166" fill="white"/>
</clipPath>
</defs>
</svg>
